<svg width="316" height="239" fill="none" xmlns="http://www.w3.org/2000/svg"><circle cx="50.513" cy="58.801" r="14.513" fill="#F6E5FF"/><circle cx="59.794" cy="46.569" r="5.105" transform="rotate(-4.192 59.794 46.57)" stroke="#35445D" stroke-width="3" stroke-linecap="round" stroke-linejoin="round"/><path d="M56.21 137.826c-54.4-5.2-59.334 54.167-55 84.5h307.999c22.8-46-17.667-69.166-44-73.5 49.333-15.5 19.5-88-28.5-116-122.254-71.315-112.5 111.5-180.5 105Z" fill="url(#a)" fill-opacity=".8"/><path d="M0 222.654h310" stroke="#35445D" stroke-width="2"/><path d="M113.653 34.6c.35-4.345 6.056-5.703 8.326-1.982l14.377 23.562a7.501 7.501 0 0 0 8.14 3.39l26.851-6.392c4.241-1.01 7.296 3.997 4.459 7.306L157.839 81.44a7.499 7.499 0 0 0-.708 8.788l14.377 23.562c2.27 3.722-1.547 8.174-5.572 6.498l-25.48-10.611a7.5 7.5 0 0 0-8.577 2.042l-17.967 20.954c-2.837 3.309-8.252 1.054-7.901-3.291l2.218-27.512a7.5 7.5 0 0 0-4.592-7.527L78.156 83.731c-4.024-1.676-3.553-7.523.688-8.532l26.852-6.392a7.5 7.5 0 0 0 5.738-6.694l2.219-27.512Z" fill="#F5DBE1" stroke="#35445D" stroke-width="3"/><path d="M183.519 24.809c.901-1.14 2.734-.463 2.676.989l-.265 6.645a1.5 1.5 0 0 0 .979 1.466l6.237 2.306c1.363.504 1.285 2.457-.114 2.85l-6.401 1.802a1.5 1.5 0 0 0-1.093 1.384l-.265 6.644c-.058 1.452-1.94 1.982-2.747.773l-3.69-5.532a1.5 1.5 0 0 0-1.654-.61l-6.402 1.8c-1.398.393-2.484-1.233-1.583-2.373l4.12-5.22c.403-.51.431-1.221.07-1.762l-3.691-5.531c-.806-1.21.405-2.744 1.768-2.24l6.238 2.306a1.5 1.5 0 0 0 1.697-.478l4.12-5.22Z" fill="#F5DBE1"/><path fill-rule="evenodd" clip-rule="evenodd" d="M82.001 113.986a4.36 4.36 0 0 1 3.262-5.219l35.102-8.163a4.358 4.358 0 0 1 2.978.368l10.674 5.479c.907.466 1.95.599 2.945.375l56.752-12.737a4.36 4.36 0 0 1 5.201 3.267l18.475 79.636a4.357 4.357 0 0 1-3.32 5.244l-106.703 23.192a4.358 4.358 0 0 1-5.174-3.286l-20.192-88.156Z" fill="#B7D7FF" stroke="#35445D" stroke-width="2.615"/><g filter="url(#b)"><path fill-rule="evenodd" clip-rule="evenodd" d="M152.033 125.143s-2.565-1.383-3.808-2.133a67.967 67.967 0 0 1-22.635-22.285c11.114-8.939 15.127-23.963 9.902-37.074l-14.888 5.9c3.212 8.106-.832 17.313-9.033 20.562-8.2 3.25-17.453-.688-20.665-8.795L75.97 87.237c5.298 13.37 20.318 22.248 34.736 19.96a83.025 83.025 0 0 0 24.569 26.347c.778.535 2.365 1.567 2.365 1.567l14.422-9.98-.029.012Z" fill="#0067D7"/></g><path fill-rule="evenodd" clip-rule="evenodd" d="M148.198 130.747s-2.565-1.383-3.808-2.132a67.98 67.98 0 0 1-22.635-22.286c11.114-8.938 15.127-23.963 9.902-37.073l-14.888 5.899c3.212 8.107-.832 17.313-9.033 20.563-8.2 3.25-17.453-.689-20.665-8.796l-14.936 5.919c5.298 13.37 20.318 22.248 34.736 19.96a83.04 83.04 0 0 0 24.569 26.348c.778.535 2.365 1.566 2.365 1.566l14.422-9.98-.029.012Z" fill="#1684FC"/><path fill-rule="evenodd" clip-rule="evenodd" d="m75.97 87.237-3.835 5.604 14.936-5.919 3.835-5.604-14.936 5.919ZM120.604 69.55l-3.835 5.605 14.888-5.9 3.835-5.603-14.888 5.899Z" fill="#3093FF"/><g filter="url(#c)"><path fill-rule="evenodd" clip-rule="evenodd" d="m144.668 92.973 57.002 9.716 22.194 3.393-19.057 101.457-79.197-13.108s8.51-40.544 12.362-61.049c3.852-20.505 6.696-40.409 6.696-40.409Z" fill="#35445D"/></g><path clip-rule="evenodd" d="M170.301 81.867a4.359 4.359 0 0 1 5.663-2.042l48.762 21.552 16.295 6.865a4.36 4.36 0 0 1 2.208 5.962l-42.627 85.506a4.359 4.359 0 0 1-5.643 2.051l-65.143-28.414a4.36 4.36 0 0 1-2.159-5.94l42.644-85.54Z" stroke="#35445D" stroke-width="2.615"/><g filter="url(#d)"><path fill-rule="evenodd" clip-rule="evenodd" d="M155.336 81.381c30.396 8.453 68.149 15.804 68.149 15.804l11.561 15.841-24.617 91.831s-65.154 4.716-95.686-18.375c19.082-19.539 37.268-91.98 40.593-105.1Z" fill="#B7D7FF"/></g><ellipse cx="166.3" cy="107.934" rx="7.67" ry="7.135" transform="rotate(14 166.3 107.934)" fill="#fff"/><rect x="183.423" y="107.94" width="41.981" height="3.004" rx="1.502" transform="rotate(14 183.423 107.94)" fill="#fff"/><rect x="180.295" y="115.628" width="19.376" height="3.004" rx="1.502" transform="rotate(14 180.295 115.628)" fill="#fff"/><ellipse cx="157.597" cy="134.349" rx="7.67" ry="7.135" transform="rotate(14 157.597 134.349)" fill="#fff"/><rect x="173.27" y="133.225" width="41.981" height="3.004" rx="1.502" transform="rotate(14 173.27 133.225)" fill="#fff"/><rect x="171.453" y="140.513" width="19.376" height="3.004" rx="1.502" transform="rotate(14 171.453 140.513)" fill="#fff"/><ellipse cx="152.731" cy="160.482" rx="7.67" ry="7.135" transform="rotate(14 152.731 160.482)" fill="#D8D8D8"/><rect x="168.404" y="159.358" width="41.981" height="3.004" rx="1.502" transform="rotate(14 168.404 159.358)" fill="#D8D8D8"/><rect x="166.586" y="166.646" width="19.376" height="3.004" rx="1.502" transform="rotate(14 166.586 166.646)" fill="#D8D8D8"/><g filter="url(#e)"><path fill-rule="evenodd" clip-rule="evenodd" d="m223.485 97.185 11.561 15.841s-8.811-1.27-15.666-3.633c1.76-3.463 4.105-12.208 4.105-12.208Z" fill="#fff"/></g><path fill-rule="evenodd" clip-rule="evenodd" d="M226.878 147.386a8.718 8.718 0 0 0-8.639-8.81l-68.509-.619a8.707 8.707 0 0 1-5.123-1.722l-12.584-9.358a8.718 8.718 0 0 0-5.11-1.722l-30.02-.32a8.718 8.718 0 0 0-8.81 8.585l-1.23 81.138a8.718 8.718 0 0 0 8.623 8.85l121.86 1.297a8.717 8.717 0 0 0 8.81-8.624l.732-68.695Z" fill="#90C0FA" stroke="url(#f)" stroke-width="6"/><g opacity=".031" filter="url(#g)"><path fill-rule="evenodd" clip-rule="evenodd" d="m226.132 217.383-139.401-1.484-.142 13.347 139.417.001.126-11.864Z" fill="url(#h)"/></g><path fill-rule="evenodd" clip-rule="evenodd" d="m54.809 92.61.002-.002-.002.001Zm5.248-4.581a46.669 46.669 0 0 1 4.968-.981c1.615-.224 4.933.967 6.897 2.897.727 1.013-.861.157-3.376.108-.86-.026-2.042.049-3.45.244-2.813.39-6.335 1.23-9.63 2.509-.45.175-.863.316-1.21.403-.164.04-.388.088-.624.102a2.09 2.09 0 0 1-.52-.032 1.567 1.567 0 0 1-.897-.507c-.356-.419-.392-.939-.287-1.352.089-.351.269-.606.363-.728.194-.25.42-.432.547-.53.29-.222.671-.457 1.091-.692.774-.433 1.505-.872 2.072-1.31.28-.217.48-.404.612-.557.063-.071.101-.125.124-.161a1.255 1.255 0 0 0-.235-.234c-.48-.391-1.509-.902-3.485-1.428a5.35 5.35 0 0 1-.604-.195 2.277 2.277 0 0 1-.65-.381 1.538 1.538 0 0 1-.495-1.523c.163-.75.74-1.166.934-1.295.42-.278.926-.424 1.194-.5.349-.097.76-.191 1.181-.283l.884-.187c1.612-.34 3.49-.734 5.038-1.33.924-.356 1.512-.706 1.818-1 .21-.202.242-.308.202-.52-.068-.365-.413-1.063-1.571-2.097-1.13-1.009-2.896-2.218-5.514-3.648-.406-.221-.793-.5-1.084-.852-.27-.327-.6-.9-.466-1.663.151-.86.788-1.434 1.352-1.732.525-.278 1.096-.392 1.599-.439 2.904-.268 7.343-.682 11.15-2.966 3.602-2.16 6.972-6.215 7.312-14.512a4.047 4.047 0 0 1 .696-2.051c.11-.156.28-.369.524-.565.233-.188.69-.483 1.304-.508.674-.028 1.132.284 1.38.576.224.264.324.555.374.752.117.454.202 1.061.303 1.778.492 3.507 4.042 9.386 8.901 13.108 1.169.896 1.2 1.1-.16.535-3.182-1.325-9.164-4.478-10.948-9.783.212 7.245-4.553 11.251-8.107 13.383-3.43 2.058-7.186 2.85-10.054 3.227 1.686 1.019 2.997 1.961 3.98 2.84 1.328 1.186 2.21 2.387 2.447 3.655.267 1.42-.316 2.68-1.304 3.63-.892.86-2.086 1.45-3.19 1.875-1.026.395-2.164.715-3.245.978.28.166.53.338.75.518 1.03.84 1.57 2.002 1.126 3.37a4.734 4.734 0 0 1-.017.054Zm-3.291-.524s-.01-.012-.01-.034c.012.023.01.034.01.034Z" fill="#FF6161"/><g filter="url(#i)"><path fill-rule="evenodd" clip-rule="evenodd" d="M115.659 157.622c-2.52-.645-3.848 2.869-1.533 4.052l36.363 18.577a2.18 2.18 0 0 0 2.722-.617l5.928-7.747a2.18 2.18 0 0 0-1.19-3.436l-42.29-10.829Z" fill="#C4CCDA"/><mask id="j" style="mask-type:alpha" maskUnits="userSpaceOnUse" x="104" y="155" width="57" height="26"><path fill-rule="evenodd" clip-rule="evenodd" d="M106.171 155.192c-1.26-.322-1.924 1.435-.766 2.026l45.893 23.446a1.09 1.09 0 0 0 1.361-.308l7.482-9.778a1.09 1.09 0 0 0-.595-1.718l-53.375-13.668Z" fill="#fff"/></mask><g mask="url(#j)"><path fill-rule="evenodd" clip-rule="evenodd" d="M116.572 156.815c-2.558-.522-3.702 3.077-1.313 4.13l37.738 16.623a2.18 2.18 0 0 0 2.688-.78l.504-.75a2.18 2.18 0 0 0-.857-3.175l-28.597-13.908a2.138 2.138 0 0 0-.518-.175l-9.645-1.965Z" fill="#9EA9BC"/></g><path fill-rule="evenodd" clip-rule="evenodd" d="M155.422 161.506a2 2 0 0 0-1.573-1.116l-42.142-4.83c-2.326-.267-3.138 2.993-.959 3.849l58.409 22.934c2.094.822 3.741-1.902 2.04-3.374l-12.288-10.632a2 2 0 0 1-.491-.641l-2.996-6.19Z" fill="#fff"/><mask id="k" style="mask-type:alpha" maskUnits="userSpaceOnUse" x="128" y="158" width="33" height="19"><path fill-rule="evenodd" clip-rule="evenodd" d="M156.141 162.991a5.003 5.003 0 0 0-3.931-2.789l-17.709-2.03c-5.814-.666-7.844 7.483-2.397 9.622l22.444 8.813c4.906 1.926 8.766-4.459 4.78-7.908a4.688 4.688 0 0 1-1.152-1.502l-2.035-4.206Z" fill="#fff"/></mask><g mask="url(#k)"><path fill-rule="evenodd" clip-rule="evenodd" d="M159.212 168.079a.576.576 0 0 0-.256-.129l-46.94-10.24 46.678 11.374c.593.145.98-.606.518-1.005Z" fill="#35445D"/></g></g><path fill="#F6E5FF" stroke="#35445D" stroke-width="2" stroke-linecap="round" stroke-linejoin="round" d="m231.487 80.654 7.802 4.487-4.488 7.802L227 88.456z"/><path d="M162 166.288c42.889-7.233 118.833-24.016 113.226-35.239-2.117-4.239-25.044-.437-41.961 3.662" stroke="#35445D" stroke-width="3" stroke-dasharray="8 8"/><defs><filter id="b" x="67.252" y="59.292" width="93.527" height="88.895" filterUnits="userSpaceOnUse" color-interpolation-filters="sRGB"><feFlood flood-opacity="0" result="BackgroundImageFix"/><feColorMatrix in="SourceAlpha" values="0 0 0 0 0 0 0 0 0 0 0 0 0 0 0 0 0 0 127 0" result="hardAlpha"/><feOffset dy="4.359"/><feGaussianBlur stdDeviation="4.359"/><feColorMatrix values="0 0 0 0 0 0 0 0 0 0 0 0 0 0 0 0 0 0 0.109484 0"/><feBlend in2="BackgroundImageFix" result="effect1_dropShadow_1175_9032"/><feBlend in="SourceGraphic" in2="effect1_dropShadow_1175_9032" result="shape"/></filter><filter id="c" x="119.072" y="90.794" width="111.331" height="127.643" filterUnits="userSpaceOnUse" color-interpolation-filters="sRGB"><feFlood flood-opacity="0" result="BackgroundImageFix"/><feColorMatrix in="SourceAlpha" values="0 0 0 0 0 0 0 0 0 0 0 0 0 0 0 0 0 0 127 0" result="hardAlpha"/><feOffset dy="4.359"/><feGaussianBlur stdDeviation="3.269"/><feColorMatrix values="0 0 0 0 0 0 0 0 0 0 0 0 0 0 0 0 0 0 0.109484 0"/><feBlend in2="BackgroundImageFix" result="effect1_dropShadow_1175_9032"/><feBlend in="SourceGraphic" in2="effect1_dropShadow_1175_9032" result="shape"/></filter><filter id="d" x="110.384" y="77.022" width="129.021" height="132.589" filterUnits="userSpaceOnUse" color-interpolation-filters="sRGB"><feFlood flood-opacity="0" result="BackgroundImageFix"/><feColorMatrix in="SourceAlpha" values="0 0 0 0 0 0 0 0 0 0 0 0 0 0 0 0 0 0 127 0" result="hardAlpha"/><feOffset/><feGaussianBlur stdDeviation="2.179"/><feColorMatrix values="0 0 0 0 0 0 0 0 0 0 0 0 0 0 0 0 0 0 0.100798 0"/><feBlend in2="BackgroundImageFix" result="effect1_dropShadow_1175_9032"/><feBlend in="SourceGraphic" in2="effect1_dropShadow_1175_9032" result="shape"/></filter><filter id="e" x="217.201" y="97.185" width="20.025" height="20.2" filterUnits="userSpaceOnUse" color-interpolation-filters="sRGB"><feFlood flood-opacity="0" result="BackgroundImageFix"/><feColorMatrix in="SourceAlpha" values="0 0 0 0 0 0 0 0 0 0 0 0 0 0 0 0 0 0 127 0" result="hardAlpha"/><feOffset dy="2.179"/><feGaussianBlur stdDeviation="1.09"/><feColorMatrix values="0 0 0 0 0 0 0 0 0 0 0 0 0 0 0 0 0 0 0.0417668 0"/><feBlend in2="BackgroundImageFix" result="effect1_dropShadow_1175_9032"/><feBlend in="SourceGraphic" in2="effect1_dropShadow_1175_9032" result="shape"/></filter><filter id="g" x="77.11" y="206.42" width="158.501" height="32.306" filterUnits="userSpaceOnUse" color-interpolation-filters="sRGB"><feFlood flood-opacity="0" result="BackgroundImageFix"/><feBlend in="SourceGraphic" in2="BackgroundImageFix" result="shape"/><feGaussianBlur stdDeviation="4.739" result="effect1_foregroundBlur_1175_9032"/></filter><filter id="i" x="106.475" y="154.724" width="68.428" height="32.95" filterUnits="userSpaceOnUse" color-interpolation-filters="sRGB"><feFlood flood-opacity="0" result="BackgroundImageFix"/><feColorMatrix in="SourceAlpha" values="0 0 0 0 0 0 0 0 0 0 0 0 0 0 0 0 0 0 127 0" result="hardAlpha"/><feOffset dy="2.179"/><feGaussianBlur stdDeviation="1.5"/><feComposite in2="hardAlpha" operator="out"/><feColorMatrix values="0 0 0 0 0.348542 0 0 0 0 0.349037 0 0 0 0 0.35 0 0 0 0.25 0"/><feBlend in2="BackgroundImageFix" result="effect1_dropShadow_1175_9032"/><feBlend in="SourceGraphic" in2="effect1_dropShadow_1175_9032" result="shape"/></filter><linearGradient class="A" x1="282.209" y1="104.326" x2="115.209" y2="268.326" gradientUnits="userSpaceOnUse"><stop stop-color="#EDF8FF"/><stop offset="1" stop-color="#FAEFFF"/></linearGradient><linearGradient id="f" x1="67.858" y1="184.059" x2="253.348" y2="186.034" gradientUnits="userSpaceOnUse"><stop stop-color="#F6F9FF"/><stop offset="1" stop-color="#FBF6FF"/></linearGradient><linearGradient id="h" x1="226.132" y1="217.383" x2="225.99" y2="230.73" gradientUnits="userSpaceOnUse"><stop stop-color="#B4BFC6"/><stop offset="1" stop-color="#7D8B94"/></linearGradient></defs></svg>